# xmcd
#
# Track frame offsets: 
#        182
#        12512
#        26167
#        38457
#        56047
#        70390
#        80342
#        95550
#        116777
#        127597
#        144380
#        158910
#        172790
#        191172
#        206222
#        220062
#
# Disc length: 3103 seconds
#
# Revision: 0
# Processed by: cddbd v1.5.2PL0 Copyright (c) Steve Scherf et al.
# Submitted via: ExactAudioCopyFreeDBPlugin 1.0
#
DISCID=de0c1d10
DTITLE=Various Artist - Trucker Hit Convoy [CD 1)
DYEAR=1900
DGENRE=Country
TTITLE0=Tom Astor - Lass Dich Nie Ganz Unterkriegen
TTITLE1=Linda Feller - Minuten Im Fieber
TTITLE2=Jonny Hill - Wenn Ich Nur Fliegen Könnte
TTITLE3=Tom Astor - Sie Reden Schneller - Als Sie Denken
TTITLE4=Rose and Vorberg - Manchmal
TTITLE5=Tom Astor - Goodbye Mein Freund
TTITLE6=Nashville Music Company - Nur Mit Dir
TTITLE7=Gunter Gabriel - Ich Bin Ein Strassenhund
TTITLE8=Tom Astor - Fahr Weiter
TTITLE9=Ralf Paulsen - Mein Guter Alter Freund
TTITLE10=Rugy and Howard - Express Cowboy
TTITLE11=Tom Astor - Morgensonne
TTITLE12=Dirk Maverick - Highway Deiner Träume
TTITLE13=Tom Astor - Lang Ist Es Her
TTITLE14=De Dröppcher - Mi Mädche Us Kölle
TTITLE15=Tom Astor - Heisses Eis
EXTD=verschenkt
EXTT0=
EXTT1=
EXTT2=
EXTT3=
EXTT4=
EXTT5=
EXTT6=
EXTT7=
EXTT8=
EXTT9=
EXTT10=
EXTT11=
EXTT12=
EXTT13=
EXTT14=
EXTT15=
PLAYORDER=
